<svg xmlns="http://www.w3.org/2000/svg" viewBox="0 0 38.79 76.84"><defs><style>.cls-1{fill:#fff;}</style></defs><g id="Layer_2" data-name="Layer 2"><g id="Layer_1-2" data-name="Layer 1"><polygon class="cls-1" points="38.79 76.79 38.02 76.79 20.04 58.52 18.76 57.22 16.79 55.22 17.16 54.41 17.64 53.27 20.69 46.44 14.11 37.9 26.04 19.64 10.95 21.3 14.84 12.06 4.13 10.64 8.84 0 5.92 0 0 13 10.72 14.9 5.36 25.57 18.98 24.1 8.98 38.1 15.08 47.36 9.9 56.99 10.26 57.34 13.26 60.42 13.59 60.76 14.49 61.68 14.64 61.83 14.77 61.97 15.08 62.29 18.64 65.98 19.04 66.39 29.2 76.84 38.79 76.84 38.79 76.79"/></g></g></svg>