<svg xmlns="http://www.w3.org/2000/svg" viewBox="0 0 269.15 190.33"><g id="Layer_2" data-name="Layer 2"><g id="Layer_1-2" data-name="Layer 1"><path d="M45.55,141.37q-4.3,0-8.31-.21l-.39.34v2.4l.35.33a29,29,0,0,1,4.74.39c.52.17.78.62.78,1.38s-.8,3.15-2.41,7.45q-1.66,4.43-2.12,5.55l-7.82,19.25-9-21.56-1.67-4.1A34.53,34.53,0,0,1,17.39,146a1.19,1.19,0,0,1,.6-1.12,12.17,12.17,0,0,1,4.71-.68l.32-.34v-2.31l-.35-.38q-5.82.21-12.89.21-5.68,0-9.39-.21l-.39.33v2.33l.36.37c2.32.06,3.64.21,4.32.8s1.88,2.89,3.61,6.89L24.6,190.33H30q2.12-5.88,8.26-20.39L43,158.69l2.5-5.83a59.41,59.41,0,0,1,3-6.48A3.94,3.94,0,0,1,50,144.8a13.19,13.19,0,0,1,3.18-.57l.34-.34,0-2.34-.38-.38C50.12,141.31,47.6,141.37,45.55,141.37Z"/><path d="M93.48,178.45l-.35.38-.85,4.28a5.63,5.63,0,0,1-.68,2.06,1.1,1.1,0,0,1-.56.39q-2.31.78-12.71.78H73.52c-.12-2.84-.17-5.76-.17-8.76V157a73.43,73.43,0,0,1,.46-10.69A1.5,1.5,0,0,1,75,145c.36-.09,1.74-.2,4.15-.35l.34-.3V142l-.34-.3q-3.8.2-11.09.2c-4.67,0-8.23-.07-10.7-.2L57,142v2.33l.35.34a40.78,40.78,0,0,1,4.14.35,1.5,1.5,0,0,1,1.16,1.28,76.48,76.48,0,0,1,.43,10.7v17.48L63,182.17a17.71,17.71,0,0,1-.39,4.59,12.24,12.24,0,0,1-2.84,2l-.17.41v1l.14.13H95l.15-.15a75.59,75.59,0,0,1,.76-11.35l-.27-.35Z"/><path d="M131.55,139.32a32.68,32.68,0,0,0-14.55,2.9q-13,6.42-13,23,0,11.85,6.85,18.48t19,6.63q12.83,0,20.23-7,7.6-7.28,7.61-20,0-11.39-6.91-17.7T131.55,139.32Zm13.26,37.36q-3.48,9.67-13.56,9.68-8.28,0-12.46-6.34-4-6.21-4-16.87a30.08,30.08,0,0,1,1.76-10.59q3.49-9.21,14-9.21,8,0,12.1,5.89t4.13,15.88A34.21,34.21,0,0,1,144.81,176.68Z"/><path d="M222.11,164.53l25.19,25.8h21.85L224.56,145c1-.12,2.06-.21,3.09-.25l.35-.31V142.1l-.35-.3c-1.56.09-3.6.14-6.07.17l-5-5.12.91-2,1.2-2.82,7.55-16.93L209.9,93.94l29.57-45.25L202.06,52.8l9.65-22.92-26.55-3.52L196.85,0h-7.26L174.93,32.23l26.56,4.71L188.21,63.38,222,59.86,197.21,94.53l15.12,22.94-12.85,23.87.9.88,7.41,7.63.8.82-7.09,15.48-5.18,10.7-10.75-23-2.21-4.75-3.18-7.38c-2.05.13-4.45.19-7.2.2-3.59,0-6.55-.07-8.9-.2l-.34.3v2.33l.34.34a38.32,38.32,0,0,1,4,.35,1.51,1.51,0,0,1,1.1,1.28,77.75,77.75,0,0,1,.44,10.68v18.26A78.6,78.6,0,0,1,169.1,186a1.46,1.46,0,0,1-1.1,1.27,35.78,35.78,0,0,1-4,.35l-.34.34v2.35H179.4V188l-.35-.34a35.78,35.78,0,0,1-4-.35A1.47,1.47,0,0,1,174,186a77.9,77.9,0,0,1-.44-10.69v-24l8.9,18.83,4.68,10.2q2.72,5.86,4.4,9.92h3l5.8-12.92q3.76-8.35,4.41-9.66l6.72-14.07.8.82v20.83a79.51,79.51,0,0,1-.44,10.69,1.48,1.48,0,0,1-1.11,1.27,35.78,35.78,0,0,1-4,.35l-.34.34v2.35H228V188l-.35-.34a35.78,35.78,0,0,1-4-.35,1.46,1.46,0,0,1-1.1-1.27,77.9,77.9,0,0,1-.44-10.69Z"/></g></g></svg>