<svg xmlns="http://www.w3.org/2000/svg" viewBox="0 0 272.66 190.33"><defs><style>.cls-1{fill:#fff;}.cls-2{fill:#cc3338;}</style></defs><g id="Layer_2" data-name="Layer 2"><g id="assets"><g id="logo"><polygon class="cls-1" points="217.45 134.85 218.65 132.03 226.2 115.1 209.9 93.94 239.47 48.69 202.06 52.8 211.71 29.88 185.16 26.36 196.85 0 189.59 0 174.93 32.23 201.49 36.94 188.21 63.38 222 59.86 197.21 94.53 212.33 117.47 199.48 141.34 200.38 142.22 207.79 149.85 210.85 152.98 211.12 153.25 221.12 163.52 247.3 190.33 269.15 190.33 216.54 136.85 217.45 134.85"/><polygon class="cls-2" points="196.85 0 185.16 26.36 211.71 29.88 202.06 52.8 239.47 48.69 209.9 93.94 226.2 115.1 218.65 132.03 217.45 134.85 216.54 136.85 269.15 190.33 272.66 190.33 272.66 0 196.85 0"/><polygon class="cls-2" points="221.12 163.52 211.12 153.25 210.85 152.98 207.79 149.85 200.38 142.22 199.48 141.34 212.33 117.47 197.21 94.53 222 59.86 188.21 63.38 201.49 36.94 174.93 32.23 189.59 0 0 0 0 190.33 55.85 190.33 55.71 190.2 55.71 190.03 55.85 190.33 91.76 190.33 96.28 190.33 247.3 190.33 221.12 163.52"/><path class="cls-1" d="M53.47,143.89l-.34.34a13.19,13.19,0,0,0-3.18.57,4,4,0,0,0-1.45,1.58,59.41,59.41,0,0,0-3,6.48L43,158.69l-4.74,11.25Q32.12,184.45,30,190.33h-5.4L8.29,151.92q-2.59-6-3.61-6.89c-.68-.59-2-.74-4.32-.8L0,143.86v-2.33l.39-.33q3.7.21,9.39.21,7.07,0,12.89-.21l.35.38v2.31l-.32.34a12.17,12.17,0,0,0-4.71.68,1.19,1.19,0,0,0-.6,1.12,34.53,34.53,0,0,0,2.31,6.56l1.67,4.1,9,21.56L38.19,159q.45-1.12,2.12-5.55Q42.73,147,42.72,146c0-.76-.26-1.21-.78-1.38a29,29,0,0,0-4.74-.39l-.35-.33v-2.4l.39-.34q4,.21,8.31.21c2.05,0,4.57-.06,7.57-.2l.38.38Z"/><path class="cls-1" d="M95.91,178.8l-.27-.35H93.48l-.35.38-.85,4.28a5.63,5.63,0,0,1-.68,2.06,1.1,1.1,0,0,1-.56.39q-2.31.78-12.71.78H73.52c-.12-2.84-.17-5.76-.17-8.76V157a73.43,73.43,0,0,1,.46-10.69A1.5,1.5,0,0,1,75,145c.36-.09,1.74-.2,4.15-.35l.34-.3V142l-.34-.3q-3.8.2-11.09.2c-4.67,0-8.23-.07-10.7-.2L57,142v2.33l.35.34a40.78,40.78,0,0,1,4.14.35,1.5,1.5,0,0,1,1.16,1.28,76.48,76.48,0,0,1,.43,10.7v17.48L63,182.17a17.71,17.71,0,0,1-.39,4.59,12.24,12.24,0,0,1-2.84,2l-.17.41v1l.14.13H95l.15-.15A75.59,75.59,0,0,1,95.91,178.8Z"/><path class="cls-1" d="M157.69,163.33q0,12.72-7.61,20-7.41,7-20.23,7-12.1,0-19-6.63T104,165.22q0-16.58,13-23a32.68,32.68,0,0,1,14.55-2.9q12.36,0,19.23,6.31T157.69,163.33Zm-10.91,1.79q0-10-4.13-15.88t-12.1-5.89q-10.5,0-14,9.21a30.08,30.08,0,0,0-1.76,10.59q0,10.66,4,16.87,4.18,6.34,12.46,6.34,10.08,0,13.56-9.68A34.21,34.21,0,0,0,146.78,165.12Z"/><path class="cls-1" d="M228,188l-.35-.34a35.78,35.78,0,0,1-4-.35,1.46,1.46,0,0,1-1.1-1.27,77.9,77.9,0,0,1-.44-10.69V157.07a77.75,77.75,0,0,1,.44-10.68,1.5,1.5,0,0,1,1.1-1.28,38.32,38.32,0,0,1,4-.35l.35-.31V142.1l-.35-.3c-2.35.13-5.74.19-10.15.2-.88,0-2.59-.07-5.14-.2-.9,2.39-1.83,4.66-2.78,6.75l-.47,1-7.61,16.6-5.18,10.7-10.75-23-2.21-4.75-3.18-7.38c-2.05.13-4.45.19-7.2.2-3.59,0-6.55-.07-8.9-.2l-.34.3v2.33l.34.34a35.78,35.78,0,0,1,4,.35,1.5,1.5,0,0,1,1.1,1.28,77.75,77.75,0,0,1,.44,10.68v18.26A78.6,78.6,0,0,1,169.1,186a1.46,1.46,0,0,1-1.1,1.27,35.78,35.78,0,0,1-4,.35l-.34.34v2.35H179.4V188l-.35-.34a35.78,35.78,0,0,1-4-.35A1.47,1.47,0,0,1,174,186a77.9,77.9,0,0,1-.44-10.69v-24l8.9,18.83,4.68,10.2q2.72,5.86,4.4,9.92h3l5.8-12.92q3.76-8.35,4.41-9.66L212,152.49l.27-.56v23.33a79.51,79.51,0,0,1-.44,10.69,1.49,1.49,0,0,1-1.11,1.27,35.78,35.78,0,0,1-4,.35l-.34.34v2.35H228Z"/></g></g></g></svg>