<svg xmlns="http://www.w3.org/2000/svg" viewBox="0 0 129.43 148.65"><defs><style>.cls-1{fill:#fff;}.cls-2{fill:#010101;}.cls-3{fill:none;}.cls-4{fill:#231f20;fill-opacity:0;}.cls-5{fill:#cc3538;}.cls-6{fill:#ee2f24;}</style></defs><g id="Layer_2" data-name="Layer 2"><g id="Layer_1-2" data-name="Layer 1"><rect class="cls-1" x="9.37" width="111.35" height="111.35" rx="12"/><path class="cls-2" d="M114.9,0H14.52A5.44,5.44,0,0,0,9.06,5.47V105.89a5.47,5.47,0,0,0,5.46,5.46H114.94a5.47,5.47,0,0,0,5.47-5.46V5.47A5.51,5.51,0,0,0,114.9,0Zm1.28,104.17a2.94,2.94,0,0,1-3,3h-97a2.94,2.94,0,0,1-2.95-3v-97A2.94,2.94,0,0,1,16.2,4.19h97a3,3,0,0,1,3,2.95Z"/><rect class="cls-2" x="40.57" y="8.77" width="2.84" height="2.84" rx="0.47"/><rect class="cls-2" x="63.31" y="8.77" width="2.84" height="2.84" rx="0.47"/><path class="cls-2" d="M58.09,8.77a.47.47,0,0,0-.46.46V14a.46.46,0,0,0,.46.46H60a.46.46,0,0,0,.47-.46V9.23A.47.47,0,0,0,60,8.77Z"/><path class="cls-2" d="M80.84,8.77a.47.47,0,0,0-.47.46V14a.46.46,0,0,0,.47.46h1.91a.46.46,0,0,0,.46-.46V9.23a.47.47,0,0,0-.46-.46Z"/><path class="cls-2" d="M51.94,8.77H49.56a.47.47,0,0,0-.46.46V14a.46.46,0,0,1-.47.46H41a.47.47,0,0,0-.47.47v1.91a.47.47,0,0,0,.47.47H43a.47.47,0,0,1,.46.46v1.91a.47.47,0,0,0,.47.47h1.91a.47.47,0,0,0,.47-.47V17.76a.46.46,0,0,1,.46-.46h4.75a.47.47,0,0,0,.47-.47V14.92a.47.47,0,0,1,.47-.47h1.91a.45.45,0,0,0,.46-.46V9.23a.46.46,0,0,0-.46-.46Z"/><path class="cls-2" d="M86.52,8.77a.46.46,0,0,0-.46.46V14a.46.46,0,0,1-.47.46H83.68a.47.47,0,0,0-.47.47v4.75a.47.47,0,0,0,.47.47h1.91a.47.47,0,0,0,.47-.47V17.76a.46.46,0,0,1,.46-.46h1.91a.47.47,0,0,0,.47-.47V9.23a.47.47,0,0,0-.47-.46Z"/><rect class="cls-2" x="40.57" y="20.14" width="2.84" height="2.84" rx="0.47"/><rect class="cls-2" x="86.06" y="20.14" width="2.84" height="2.84" rx="0.47"/><path class="cls-2" d="M77.53,14.45H75.15a.47.47,0,0,0-.47.47v1.91a.47.47,0,0,0,.47.47h1.91a.47.47,0,0,1,.47.46v1.91a.47.47,0,0,1-.47.47H75.15a.47.47,0,0,1-.47-.47V17.76a.46.46,0,0,0-.46-.46H72.31a.47.47,0,0,0-.47.46v1.91a.47.47,0,0,1-.47.47H69.46a.47.47,0,0,0-.46.47v1.91a.47.47,0,0,0,.46.46h1.91a.47.47,0,0,1,.47.47v1.91a.47.47,0,0,0,.47.47h1.91a.46.46,0,0,0,.46-.47V23.45a.47.47,0,0,1,.47-.47H79.9a.47.47,0,0,0,.47-.46v-7.6a.47.47,0,0,0-.47-.47Z"/><rect class="cls-2" x="69" y="25.83" width="2.84" height="2.84" rx="0.47"/><path class="cls-2" d="M80.84,23a.47.47,0,0,0-.47.47V28.2a.47.47,0,0,0,.47.47h1.91a.47.47,0,0,0,.46-.47V23.45a.47.47,0,0,0-.46-.47Z"/><path class="cls-2" d="M58.09,25.83a.46.46,0,0,0-.46.46v4.76a.47.47,0,0,0,.46.46H60a.47.47,0,0,0,.47-.46V26.29a.46.46,0,0,0-.47-.46Z"/><path class="cls-2" d="M74.68,8.77H69.46a.47.47,0,0,0-.46.46v1.92a.47.47,0,0,1-.47.46H66.62a.46.46,0,0,0-.46.47v4.75a.47.47,0,0,1-.47.47H63.78a.47.47,0,0,1-.47-.47V14.92a.47.47,0,0,0-.46-.47H60.94a.47.47,0,0,0-.47.47V25.36a.47.47,0,0,0,.47.47h1.91a.46.46,0,0,1,.46.46v4.76a.47.47,0,0,0,.47.46h1.91a.47.47,0,0,0,.47-.46V26.29a.45.45,0,0,1,.46-.46h1.91a.47.47,0,0,0,.47-.47V23.45a.47.47,0,0,0-.47-.47H66.62a.46.46,0,0,1-.46-.46V20.61a.46.46,0,0,1,.46-.47h1.91a.47.47,0,0,0,.47-.47V14.92a.47.47,0,0,1,.46-.47h4.76a.45.45,0,0,0,.46-.46V12.08a.47.47,0,0,1,.47-.47h1.91a.47.47,0,0,0,.47-.46V9.23a.47.47,0,0,0-.47-.46Z"/><path class="cls-2" d="M86.52,25.83a.45.45,0,0,0-.46.46v4.76a.46.46,0,0,0,.46.46h1.91a.47.47,0,0,0,.47-.46V26.29a.46.46,0,0,0-.47-.46Z"/><path class="cls-2" d="M54.78,14.92v1.91a.46.46,0,0,1-.46.47H52.41a.47.47,0,0,0-.47.46v4.76a.47.47,0,0,1-.47.46H46.72a.46.46,0,0,0-.46.47V28.2a.47.47,0,0,1-.47.47H43.88a.47.47,0,0,1-.47-.47V26.29a.46.46,0,0,0-.46-.46H41a.46.46,0,0,0-.47.46v4.76a.47.47,0,0,0,.47.46h4.75a.47.47,0,0,1,.47.47v1.91a.45.45,0,0,0,.46.46h1.91a.46.46,0,0,0,.47-.46v-7.6a.46.46,0,0,1,.46-.46h1.91a.46.46,0,0,1,.47.46V28.2a.47.47,0,0,0,.47.47h1.91a.46.46,0,0,0,.46-.47V20.61a.47.47,0,0,1,.47-.47h1.91a.47.47,0,0,0,.47-.47V14.92a.47.47,0,0,0-.47-.47H55.25A.47.47,0,0,0,54.78,14.92Z"/><rect class="cls-2" x="91.74" y="31.51" width="2.84" height="2.84" rx="0.47"/><rect class="cls-2" x="103.11" y="31.51" width="2.84" height="2.84" rx="0.47"/><rect class="cls-2" x="108.8" y="31.51" width="2.84" height="2.84" rx="0.47"/><rect class="cls-2" x="26.36" y="34.35" width="2.84" height="2.84" rx="0.47"/><rect class="cls-2" x="63.31" y="34.35" width="2.84" height="2.84" rx="0.47"/><path class="cls-2" d="M83.21,33.89V32a.47.47,0,0,0-.46-.47H80.84a.47.47,0,0,0-.47.47v1.91a.46.46,0,0,1-.47.46H78a.46.46,0,0,1-.46-.46v-7.6a.46.46,0,0,0-.47-.46H75.15a.46.46,0,0,0-.47.46v4.76a.46.46,0,0,1-.46.46H69.46A.47.47,0,0,0,69,32v7.59a.47.47,0,0,0,.46.47h1.91a.47.47,0,0,0,.47-.47V34.82a.47.47,0,0,1,.47-.47h1.91a.46.46,0,0,1,.46.47v4.75a.47.47,0,0,0,.47.47h1.91a.47.47,0,0,0,.47-.47V37.66A.47.47,0,0,1,78,37.2H79.9a.47.47,0,0,1,.47.46v1.91a.47.47,0,0,0,.47.47h1.91a.47.47,0,0,0,.46-.47V37.66a.47.47,0,0,1,.47-.46h1.91a.47.47,0,0,0,.47-.47V34.82a.47.47,0,0,0-.47-.47H83.68A.46.46,0,0,1,83.21,33.89Z"/><path class="cls-2" d="M89.36,34.35a.47.47,0,0,0-.46.47v4.75a.47.47,0,0,0,.46.47h1.92a.47.47,0,0,0,.46-.47V34.82a.47.47,0,0,0-.46-.47Z"/><path class="cls-2" d="M106.42,34.35a.46.46,0,0,0-.46.47v4.75a.46.46,0,0,0,.46.47h1.91a.47.47,0,0,0,.47-.47V34.82a.47.47,0,0,0-.47-.47Z"/><path class="cls-2" d="M57.63,33.89V32a.47.47,0,0,0-.47-.47H55.25a.47.47,0,0,0-.47.47v1.91a.45.45,0,0,1-.46.46H49.56a.47.47,0,0,0-.46.47v1.91a.47.47,0,0,1-.47.47H46.72a.46.46,0,0,1-.46-.47V34.82a.47.47,0,0,0-.47-.47H41a.47.47,0,0,0-.47.47v1.91a.47.47,0,0,0,.47.47H43a.47.47,0,0,1,.46.46v4.76a.47.47,0,0,0,.47.46h4.75a.47.47,0,0,0,.47-.46V40.51a.47.47,0,0,1,.46-.47h1.91a.47.47,0,0,0,.47-.47V37.66a.47.47,0,0,1,.47-.46h4.75a.47.47,0,0,1,.47.46v1.91a.47.47,0,0,0,.46.47H60a.47.47,0,0,0,.47-.47V34.82a.47.47,0,0,0-.47-.47H58.09A.46.46,0,0,1,57.63,33.89Z"/><path class="cls-2" d="M86.06,40.51v1.91a.47.47,0,0,1-.47.46H83.68a.47.47,0,0,0-.47.47V48.1a.47.47,0,0,0,.47.47h1.91a.47.47,0,0,0,.47-.47V46.19a.45.45,0,0,1,.46-.46h1.91a.47.47,0,0,0,.47-.47V40.51a.47.47,0,0,0-.47-.47H86.52A.46.46,0,0,0,86.06,40.51Z"/><rect class="cls-2" x="103.11" y="45.73" width="2.84" height="2.84" rx="0.47"/><path class="cls-2" d="M108.8,42.88h-2.38a.46.46,0,0,0-.46.47v1.91a.46.46,0,0,0,.46.47h1.91a.46.46,0,0,1,.47.46V48.1a.47.47,0,0,0,.46.47h1.92a.47.47,0,0,0,.46-.47V43.35a.47.47,0,0,0-.46-.47Z"/><rect class="cls-2" x="80.37" y="48.57" width="2.84" height="2.84" rx="0.47"/><path class="cls-2" d="M88.9,48.57H86.52a.46.46,0,0,0-.46.47V51a.46.46,0,0,0,.46.46h4.76a.47.47,0,0,0,.46-.46V49a.47.47,0,0,0-.46-.47Z"/><rect class="cls-2" x="105.96" y="48.57" width="2.84" height="2.84" rx="0.47"/><path class="cls-2" d="M26.36,45.26V43.35a.47.47,0,0,0-.47-.47h-7.6a.47.47,0,0,0-.46.47V51a.47.47,0,0,0,.46.46H20.2a.47.47,0,0,1,.47.47v1.91a.46.46,0,0,0,.47.46h1.91a.46.46,0,0,0,.46-.46V51.88a.47.47,0,0,1,.47-.47h4.75A.47.47,0,0,0,29.2,51V46.19a.46.46,0,0,0-.47-.46H26.82A.46.46,0,0,1,26.36,45.26ZM20.67,48.1V46.19a.46.46,0,0,1,.47-.46h1.91a.46.46,0,0,1,.46.46V48.1a.47.47,0,0,1-.46.47H21.14A.47.47,0,0,1,20.67,48.1Z"/><path class="cls-2" d="M37.73,48.57H35.35a.47.47,0,0,0-.47.47V51a.47.47,0,0,0,.47.46h1.91a.47.47,0,0,1,.47.47v1.91a.46.46,0,0,0,.46.46H40.1a.46.46,0,0,0,.47-.46V49a.47.47,0,0,0-.47-.47Z"/><rect class="cls-2" x="83.21" y="51.41" width="2.84" height="2.84" rx="0.47"/><path class="cls-2" d="M103.11,45.26V43.35a.47.47,0,0,1,.47-.47h1.91a.47.47,0,0,0,.47-.46V40.51a.47.47,0,0,0-.47-.47h-4.75a.47.47,0,0,0-.47.47v1.91a.47.47,0,0,1-.47.46H97.89a.47.47,0,0,1-.46-.46V37.66a.47.47,0,0,1,.46-.46h4.76a.47.47,0,0,0,.46-.47V34.82a.47.47,0,0,0-.46-.47h-1.91a.46.46,0,0,1-.47-.46V32a.47.47,0,0,0-.47-.47H97.89a.47.47,0,0,0-.46.47v1.91a.46.46,0,0,1-.47.46H95.05a.47.47,0,0,0-.47.47v7.6a.46.46,0,0,1-.46.46H92.21a.47.47,0,0,0-.47.47V48.1a.47.47,0,0,0,.47.47h1.91a.46.46,0,0,1,.46.47v4.75a.46.46,0,0,0,.47.46H97a.46.46,0,0,0,.47-.46V51.88a.47.47,0,0,1,.46-.47H99.8a.47.47,0,0,1,.47.47v1.91a.46.46,0,0,0,.47.46h4.75a.46.46,0,0,0,.47-.46V51.88a.47.47,0,0,0-.47-.47h-1.91a.47.47,0,0,1-.47-.46V49a.47.47,0,0,0-.46-.47h-1.91a.47.47,0,0,1-.47-.47V46.19a.46.46,0,0,1,.47-.46h1.91A.47.47,0,0,0,103.11,45.26Z"/><rect class="cls-2" x="34.88" y="54.25" width="2.84" height="2.84" rx="0.47"/><rect class="cls-2" x="97.43" y="54.25" width="2.84" height="2.84" rx="0.47"/><path class="cls-2" d="M20.67,56.63V54.72a.47.47,0,0,0-.47-.47H18.29a.47.47,0,0,0-.46.47v4.75a.47.47,0,0,0,.46.47H20.2a.47.47,0,0,1,.47.47v1.91a.47.47,0,0,0,.47.46h1.91a.47.47,0,0,0,.46-.46V57.56a.47.47,0,0,0-.46-.46H21.14A.47.47,0,0,1,20.67,56.63Z"/><path class="cls-2" d="M46.26,45.73H43.88a.47.47,0,0,1-.47-.47V43.35a.47.47,0,0,0-.46-.47H41a.47.47,0,0,1-.47-.46V37.66a.47.47,0,0,0-.47-.46H35.35a.47.47,0,0,1-.47-.47V34.82a.47.47,0,0,1,.47-.47h1.91a.46.46,0,0,0,.47-.46V32a.47.47,0,0,0-.47-.47H32.51A.47.47,0,0,0,32,32v4.75a.47.47,0,0,1-.47.47H29.66a.47.47,0,0,0-.46.46v1.91a.47.47,0,0,1-.47.47H26.82a.46.46,0,0,0-.46.47v1.91a.46.46,0,0,0,.46.46h4.75a.47.47,0,0,1,.47.47v1.91a.47.47,0,0,0,.47.47H40.1a.46.46,0,0,1,.47.46V48.1a.47.47,0,0,0,.47.47H43a.47.47,0,0,1,.46.47v4.75a.46.46,0,0,1-.46.46H41a.47.47,0,0,0-.47.47v1.91a.47.47,0,0,1-.47.47H38.19a.47.47,0,0,0-.46.46v1.91a.47.47,0,0,0,.46.47H40.1a.47.47,0,0,1,.47.47v1.91a.47.47,0,0,0,.47.46h4.75a.47.47,0,0,0,.47-.46V51.88a.46.46,0,0,1,.46-.47h1.91A.47.47,0,0,0,49.1,51V46.19a.46.46,0,0,0-.47-.46ZM34.88,42.42V40.51a.47.47,0,0,1,.47-.47h1.91a.47.47,0,0,1,.47.47v1.91a.47.47,0,0,1-.47.46H35.35A.47.47,0,0,1,34.88,42.42Z"/><path class="cls-2" d="M32,54.72a.47.47,0,0,0-.47-.47H26.82a.46.46,0,0,0-.46.47V65.16a.46.46,0,0,0,.46.47h1.91a.47.47,0,0,0,.47-.47V60.41a.47.47,0,0,1,.46-.47h1.91a.47.47,0,0,0,.47-.47V54.72Z"/><path class="cls-2" d="M34.88,59.94H32.51a.47.47,0,0,0-.47.47v1.91a.47.47,0,0,0,.47.46h4.75a.47.47,0,0,0,.47-.46V60.41a.47.47,0,0,0-.47-.47Z"/><path class="cls-2" d="M23.51,65.63H21.14a.46.46,0,0,0-.47.46V68a.47.47,0,0,0,.47.47h4.75a.47.47,0,0,0,.47-.47V66.09a.46.46,0,0,0-.47-.46Z"/><path class="cls-2" d="M108.8,51.88v1.91a.46.46,0,0,1-.47.46h-1.91a.46.46,0,0,0-.46.47v4.75a.46.46,0,0,0,.46.47h1.91a.47.47,0,0,1,.47.47v4.75a.47.47,0,0,1-.47.47h-1.91a.45.45,0,0,0-.46.46V68a.46.46,0,0,0,.46.47h4.76a.47.47,0,0,0,.46-.47V51.88a.47.47,0,0,0-.46-.47h-1.92A.47.47,0,0,0,108.8,51.88Z"/><path class="cls-2" d="M94.58,57.1H92.21a.47.47,0,0,1-.47-.47V54.72a.47.47,0,0,0-.46-.47H89.36a.47.47,0,0,0-.46.47v1.91a.47.47,0,0,1-.47.47H83.68a.47.47,0,0,0-.47.46v4.76a.47.47,0,0,1-.46.46H80.84a.47.47,0,0,0-.47.47v7.6a.47.47,0,0,0,.47.46h1.91a.47.47,0,0,0,.46-.46V66.09a.46.46,0,0,1,.47-.46h1.91a.46.46,0,0,1,.47.46V68a.46.46,0,0,0,.46.47h1.91A.47.47,0,0,0,88.9,68V66.09a.46.46,0,0,1,.46-.46h1.92a.47.47,0,0,0,.46-.47V63.25a.47.47,0,0,1,.47-.47h1.91a.46.46,0,0,0,.46-.46V60.41a.47.47,0,0,1,.47-.47H97a.47.47,0,0,0,.47-.47V57.56A.47.47,0,0,0,97,57.1Zm-8.52,5.22V60.41a.46.46,0,0,1,.46-.47h1.91a.47.47,0,0,1,.47.47v1.91a.47.47,0,0,1-.47.46H86.52A.46.46,0,0,1,86.06,62.32Z"/><rect class="cls-2" x="103.11" y="68.47" width="2.84" height="2.84" rx="0.47"/><rect class="cls-2" x="34.88" y="71.31" width="2.84" height="2.84" rx="0.47"/><path class="cls-2" d="M43.41,65.63H29.66a.46.46,0,0,0-.46.46V68a.47.47,0,0,0,.46.47h1.91a.47.47,0,0,1,.47.47v1.91a.47.47,0,0,0,.47.46h1.91a.47.47,0,0,0,.46-.46V68.94a.47.47,0,0,1,.47-.47h1.91a.47.47,0,0,1,.47.47v1.91a.47.47,0,0,0,.46.46H40.1a.47.47,0,0,1,.47.47v1.91a.46.46,0,0,0,.47.46H43a.46.46,0,0,0,.46-.46V68.94a.47.47,0,0,1,.47-.47h1.91a.47.47,0,0,0,.47-.47V66.09a.46.46,0,0,0-.47-.46Z"/><rect class="cls-2" x="66.16" y="71.31" width="2.84" height="2.84" rx="0.47"/><rect class="cls-2" x="71.84" y="71.31" width="2.84" height="2.84" rx="0.47"/><rect class="cls-2" x="77.53" y="71.31" width="2.84" height="2.84" rx="0.47"/><rect class="cls-2" x="74.68" y="74.15" width="2.84" height="2.84" rx="0.47"/><path class="cls-2" d="M34.88,77H29.66a.47.47,0,0,1-.46-.47V74.62a.47.47,0,0,0-.47-.47H24a.47.47,0,0,0-.47.47v1.91a.47.47,0,0,1-.46.47H21.14a.47.47,0,0,1-.47-.47V68.94a.47.47,0,0,0-.47-.47H18.29a.47.47,0,0,0-.46.47V79.37a.47.47,0,0,0,.46.47h19a.47.47,0,0,0,.47-.47V77.46a.47.47,0,0,0-.47-.46Z"/><path class="cls-2" d="M51.94,73.69V71.78a.47.47,0,0,0-.47-.47H49.56a.47.47,0,0,1-.46-.46V68.94a.47.47,0,0,0-.47-.47H46.72a.46.46,0,0,0-.46.47v7.59a.46.46,0,0,0,.46.47h1.91a.47.47,0,0,1,.47.46v1.91a.47.47,0,0,0,.46.47h1.91a.47.47,0,0,0,.47-.47V77.46a.47.47,0,0,1,.47-.46h1.91a.46.46,0,0,0,.46-.47V74.62a.46.46,0,0,0-.46-.47H52.41A.46.46,0,0,1,51.94,73.69Z"/><path class="cls-2" d="M60.47,73.69V71.78a.47.47,0,0,0-.47-.47H58.09a.47.47,0,0,0-.46.47v7.59a.47.47,0,0,0,.46.47H60a.47.47,0,0,0,.47-.47V77.46a.47.47,0,0,1,.47-.46h1.91a.47.47,0,0,0,.46-.47V74.62a.47.47,0,0,0-.46-.47H60.94A.46.46,0,0,1,60.47,73.69Z"/><path class="cls-2" d="M86.06,71.31H83.68a.47.47,0,0,0-.47.47v1.91a.46.46,0,0,1-.46.46H80.84a.47.47,0,0,0-.47.47v4.75a.47.47,0,0,0,.47.47h1.91a.47.47,0,0,0,.46-.47V77.46a.47.47,0,0,1,.47-.46h1.91a.47.47,0,0,0,.47-.47V74.62a.46.46,0,0,1,.46-.47h1.91a.46.46,0,0,0,.47-.46V71.78a.47.47,0,0,0-.47-.47Z"/><path class="cls-2" d="M43.41,77H41a.47.47,0,0,0-.47.46v4.76a.47.47,0,0,0,.47.46H43a.47.47,0,0,0,.46-.46V80.31a.47.47,0,0,1,.47-.47h1.91a.47.47,0,0,0,.47-.47V77.46a.47.47,0,0,0-.47-.46Z"/><rect class="cls-2" x="46.26" y="79.84" width="2.84" height="2.84" rx="0.47"/><rect class="cls-2" x="49.1" y="82.68" width="2.84" height="2.84" rx="0.47"/><path class="cls-2" d="M55.25,79.84a.47.47,0,0,0-.47.47v4.75a.47.47,0,0,0,.47.47h1.91a.47.47,0,0,0,.47-.47V80.31a.47.47,0,0,0-.47-.47Z"/><path class="cls-2" d="M69,79.37V77.46a.47.47,0,0,0-.47-.46H66.62a.46.46,0,0,0-.46.46v7.6a.46.46,0,0,0,.46.47h1.91a.47.47,0,0,0,.47-.47V83.15a.47.47,0,0,1,.46-.47h1.91a.47.47,0,0,0,.47-.46V80.31a.47.47,0,0,0-.47-.47H69.46A.47.47,0,0,1,69,79.37Z"/><path class="cls-2" d="M77.53,82.22V80.31a.47.47,0,0,0-.47-.47H75.15a.47.47,0,0,0-.47.47v4.75a.47.47,0,0,0,.47.47H79.9a.47.47,0,0,0,.47-.47V83.15a.47.47,0,0,0-.47-.47H78A.47.47,0,0,1,77.53,82.22Z"/><rect class="cls-2" x="91.74" y="82.68" width="2.84" height="2.84" rx="0.47"/><rect class="cls-2" x="51.94" y="85.53" width="2.84" height="2.84" rx="0.47"/><path class="cls-2" d="M60.94,79.84a.47.47,0,0,0-.47.47V87.9a.47.47,0,0,0,.47.47h1.91a.47.47,0,0,0,.46-.47V80.31a.47.47,0,0,0-.46-.47Z"/><rect class="cls-2" x="91.74" y="96.9" width="2.84" height="2.84" rx="0.47"/><path class="cls-2" d="M46.26,96.43V94.52a.47.47,0,0,0-.47-.47H43.88a.47.47,0,0,0-.47.47v7.6a.47.47,0,0,0,.47.46h4.75a.47.47,0,0,0,.47-.46V97.36a.47.47,0,0,0-.47-.46H46.72A.46.46,0,0,1,46.26,96.43Z"/><path class="cls-2" d="M66.62,94.05a.45.45,0,0,1-.46-.46V88.84a.47.47,0,0,0-.47-.47H63.78a.47.47,0,0,0-.47.47v1.91a.47.47,0,0,1-.46.46H60.94a.47.47,0,0,0-.47.47v1.91a.46.46,0,0,1-.47.46H58.09a.46.46,0,0,1-.46-.46V88.84a.47.47,0,0,0-.47-.47H55.25a.47.47,0,0,0-.47.47v1.91a.46.46,0,0,1-.46.46H52.41a.47.47,0,0,1-.47-.46V88.84a.47.47,0,0,0-.47-.47H46.72a.46.46,0,0,1-.46-.47V86a.47.47,0,0,0-.47-.46H41a.47.47,0,0,0-.47.46V87.9a.47.47,0,0,0,.47.47H43a.47.47,0,0,1,.46.47v1.91a.47.47,0,0,0,.47.46h1.91a.47.47,0,0,1,.47.47v1.91a.45.45,0,0,0,.46.46h4.75a.47.47,0,0,1,.47.47v7.6a.47.47,0,0,0,.47.46H60a.47.47,0,0,0,.47-.46v-1.91a.47.47,0,0,1,.47-.47h1.91a.47.47,0,0,0,.46-.47V97.36a.47.47,0,0,1,.47-.46h4.75a.47.47,0,0,0,.47-.47V94.52a.47.47,0,0,0-.47-.47Z"/><path class="cls-2" d="M88.9,99.74H86.52a.46.46,0,0,1-.46-.47V97.36a.46.46,0,0,1,.46-.46h1.91a.47.47,0,0,0,.47-.47V94.52a.47.47,0,0,0-.47-.47H83.68a.46.46,0,0,1-.47-.46V91.68a.47.47,0,0,0-.46-.47H80.84a.47.47,0,0,1-.47-.46V88.84a.47.47,0,0,0-.47-.47H69.46a.47.47,0,0,0-.46.47v4.75a.46.46,0,0,0,.46.46h4.76a.46.46,0,0,1,.46.47v1.91a.46.46,0,0,1-.46.47H69.46a.47.47,0,0,0-.46.46v4.76a.47.47,0,0,0,.46.46h4.76a.46.46,0,0,0,.46-.46v-1.91a.47.47,0,0,1,.47-.47h1.91a.47.47,0,0,0,.47-.47V94.52a.47.47,0,0,1,.46-.47H79.9a.47.47,0,0,1,.47.47v7.6a.47.47,0,0,0,.47.46H91.28a.47.47,0,0,0,.46-.46v-1.91a.47.47,0,0,0-.46-.47Z"/><path class="cls-2" d="M109.26,82.68h1.92a.47.47,0,0,0,.46-.46V80.31a.47.47,0,0,0-.46-.47h-7.6a.47.47,0,0,0-.47.47v1.91a.47.47,0,0,1-.46.46h-1.91a.47.47,0,0,1-.47-.46V80.31a.47.47,0,0,1,.47-.47h1.91a.47.47,0,0,0,.46-.47V77.46a.47.47,0,0,1,.47-.46h4.75a.47.47,0,0,0,.47-.47V71.78a.47.47,0,0,0-.47-.47h-1.91a.46.46,0,0,0-.46.47v1.91a.46.46,0,0,1-.47.46h-4.75a.46.46,0,0,1-.47-.46V68.94a.47.47,0,0,1,.47-.47h1.91a.47.47,0,0,0,.46-.47V66.09a.46.46,0,0,1,.47-.46h1.91a.47.47,0,0,0,.47-.47V60.41a.47.47,0,0,0-.47-.47h-7.6a.47.47,0,0,0-.46.47v1.91a.47.47,0,0,1-.47.46H95.05a.47.47,0,0,0-.47.47v1.91a.47.47,0,0,0,.47.47H97a.46.46,0,0,1,.47.46V68a.47.47,0,0,1-.47.47h-7.6a.47.47,0,0,0-.46.47v1.91a.47.47,0,0,0,.46.46H97a.47.47,0,0,1,.47.47v1.91a.46.46,0,0,1-.47.46H95.05a.47.47,0,0,0-.47.47v1.91a.46.46,0,0,1-.46.47h-7.6a.46.46,0,0,0-.46.46v4.76a.47.47,0,0,1-.47.46H83.68a.47.47,0,0,0-.47.47V87.9a.47.47,0,0,0,.47.47h1.91a.47.47,0,0,1,.47.47v1.91a.46.46,0,0,0,.46.46h1.91a.47.47,0,0,1,.47.47v1.91a.46.46,0,0,0,.46.46h1.92a.46.46,0,0,0,.46-.46V91.68a.47.47,0,0,1,.47-.47h1.91a.46.46,0,0,1,.46.47v1.91a.46.46,0,0,0,.47.46H97a.47.47,0,0,1,.47.47v1.91a.47.47,0,0,0,.46.47H99.8a.47.47,0,0,0,.47-.47V86a.47.47,0,0,1,.47-.46h1.91a.47.47,0,0,1,.46.46V87.9a.47.47,0,0,0,.47.47h1.91a.47.47,0,0,1,.47.47v4.75a.46.46,0,0,1-.47.46h-1.91a.47.47,0,0,0-.47.47v7.6a.47.47,0,0,0,.47.46h4.75a.47.47,0,0,0,.47-.46v-1.91a.47.47,0,0,0-.47-.47h-1.91a.46.46,0,0,1-.46-.47V97.36a.46.46,0,0,1,.46-.46h4.76a.47.47,0,0,0,.46-.47V94.52a.47.47,0,0,0-.46-.47h-1.92a.46.46,0,0,1-.46-.46V91.68a.47.47,0,0,1,.46-.47h1.92a.47.47,0,0,0,.46-.46V88.84a.47.47,0,0,0-.46-.47h-1.92a.47.47,0,0,1-.46-.47V83.15A.47.47,0,0,1,109.26,82.68ZM97.43,87.9a.47.47,0,0,1-.47.47h-7.6a.47.47,0,0,1-.46-.47V80.31a.47.47,0,0,1,.46-.47H97a.47.47,0,0,1,.47.47V87.9Z"/><path class="cls-3" d="M20.81,22V15.49a3.78,3.78,0,0,1,3.81-3.74h6.31a3.78,3.78,0,0,1,3.81,3.74V25.68H24.62A3.77,3.77,0,0,1,20.81,22Z"/><path class="cls-2" d="M17.83,22V15.49a6.76,6.76,0,0,1,6.79-6.72h6.31a6.76,6.76,0,0,1,6.8,6.72V28.67H24.62A6.76,6.76,0,0,1,17.83,22Zm3,0a3.77,3.77,0,0,0,3.81,3.73H34.74V15.49a3.78,3.78,0,0,0-3.81-3.74H24.62a3.78,3.78,0,0,0-3.81,3.74Z"/><path class="cls-3" d="M108.66,22V15.49a3.78,3.78,0,0,0-3.81-3.74H98.53a3.77,3.77,0,0,0-3.8,3.74V25.68h10.12A3.77,3.77,0,0,0,108.66,22Z"/><path class="cls-2" d="M111.64,22V15.49a6.76,6.76,0,0,0-6.79-6.72H98.53a6.76,6.76,0,0,0-6.79,6.72V28.67h13.11A6.76,6.76,0,0,0,111.64,22Zm-3,0a3.77,3.77,0,0,1-3.81,3.73H94.73V15.49a3.77,3.77,0,0,1,3.8-3.74h6.32a3.78,3.78,0,0,1,3.81,3.74Z"/><path class="cls-3" d="M20.81,89.41v6.46a3.78,3.78,0,0,0,3.81,3.73h6.31a3.78,3.78,0,0,0,3.81-3.73V85.67H24.62A3.78,3.78,0,0,0,20.81,89.41Z"/><path class="cls-2" d="M17.83,89.41v6.46a6.76,6.76,0,0,0,6.79,6.71h6.31a6.76,6.76,0,0,0,6.8-6.71V82.68H24.62A6.76,6.76,0,0,0,17.83,89.41Zm3,0a3.78,3.78,0,0,1,3.81-3.74H34.74v10.2a3.78,3.78,0,0,1-3.81,3.73H24.62a3.78,3.78,0,0,1-3.81-3.73Z"/><path class="cls-2" d="M23.51,20.66V16.77a2.35,2.35,0,0,1,2.36-2.32h3.81A2.35,2.35,0,0,1,32,16.77V23H25.87A2.34,2.34,0,0,1,23.51,20.66Z"/><path class="cls-2" d="M106,20.66V16.77a2.35,2.35,0,0,0-2.36-2.32H99.78a2.34,2.34,0,0,0-2.35,2.32V23h6.17A2.34,2.34,0,0,0,106,20.66Z"/><path class="cls-2" d="M23.51,90.69v3.89a2.34,2.34,0,0,0,2.36,2.32h3.81A2.34,2.34,0,0,0,32,94.58V88.37H25.87A2.34,2.34,0,0,0,23.51,90.69Z"/><path id="FrameBody" class="cls-2" d="M115.66,121H13.81A13.83,13.83,0,0,0,0,134.84H0a13.83,13.83,0,0,0,13.81,13.81H115.62a13.83,13.83,0,0,0,13.81-13.81h0A13.77,13.77,0,0,0,115.66,121Z"/><path class="cls-1" d="M12.23,128.61h2.62a.73.73,0,0,0,.73-.73.76.76,0,0,0-.73-.74H12.27a.75.75,0,0,0-.77.74A.73.73,0,0,0,12.23,128.61Z"/><path class="cls-1" d="M13.81,123.84a11,11,0,1,0,11,11A10.93,10.93,0,0,0,13.81,123.84Zm4.73,9v8.85A1.58,1.58,0,0,1,17,143.22H10.15a1.58,1.58,0,0,1-1.57-1.57V127.8a1.58,1.58,0,0,1,1.57-1.58H17a1.61,1.61,0,0,1,1.58,1.58Z"/><path class="cls-1" d="M13.54,140.49a1,1,0,0,0-1,1,1,1,0,1,0,1-1Z"/><polygon class="cls-1" points="9.69 139.84 17.35 139.84 17.35 129.68 9.69 129.61 9.69 139.84"/><path class="cls-4" d="M17,126.22H10.15a1.58,1.58,0,0,0-1.57,1.58v13.85a1.58,1.58,0,0,0,1.57,1.57H17a1.58,1.58,0,0,0,1.58-1.57V127.8A1.61,1.61,0,0,0,17,126.22Zm-4.69.92h2.58a.76.76,0,0,1,.73.74.73.73,0,0,1-.73.73H12.23a.73.73,0,0,1-.73-.73A.75.75,0,0,1,12.27,127.14Zm1.27,15.43a1.09,1.09,0,0,1-1-1,1,1,0,0,1,1-1,1,1,0,1,1,0,2.08Zm3.81-2.73H9.69V129.61l7.66.07Z"/><path d="M17,126.28H10.15a1.58,1.58,0,0,0-1.57,1.57v13.8a1.58,1.58,0,0,0,1.57,1.57H17a1.58,1.58,0,0,0,1.58-1.57v-13.8A1.6,1.6,0,0,0,17,126.28Zm-4.69.92h2.58a.75.75,0,0,1,.73.72.73.73,0,0,1-.73.73H12.23a.73.73,0,0,1-.73-.73A.74.74,0,0,1,12.27,127.2Zm1.27,15.37a1.09,1.09,0,0,1-1-1,1,1,0,0,1,1-1,1,1,0,1,1,0,2.07ZM17,139.85h-7v-10.2l7,.08Z"/><path class="cls-1" d="M30,137.46a5.56,5.56,0,0,0,2.49.62c1,0,1.58-.42,1.58-1.08s-.47-1-1.66-1.38c-1.66-.59-2.74-1.49-2.74-2.94,0-1.69,1.42-3,3.75-3a5.86,5.86,0,0,1,2.54.5l-.5,1.8a4.73,4.73,0,0,0-2.07-.47c-1,0-1.44.45-1.44,1s.55.91,1.83,1.39c1.76.66,2.57,1.57,2.57,3,0,1.66-1.26,3.08-4,3.08a6.27,6.27,0,0,1-2.8-.62Z"/><path class="cls-1" d="M37.9,129.85h2.22v4.39h0c.21-.38.45-.73.68-1.08l2.24-3.31h2.76l-3.28,4.23,3.46,5.7H43.4L41,135.5l-.84,1v3.24H37.9Z"/><path class="cls-1" d="M52.84,135.58H49.19v2.36h4.08v1.84H46.94v-9.93h6.12v1.84H49.19v2.07h3.65Z"/><path class="cls-1" d="M54.81,139.78v-9.93h2.61l2.06,3.64a28.07,28.07,0,0,1,1.63,3.41h0a41.42,41.42,0,0,1-.18-4.14v-2.9H63v9.93H60.67L58.55,136a35.72,35.72,0,0,1-1.73-3.51h0c.07,1.32.1,2.72.1,4.34v3Z"/><path class="cls-1" d="M67.22,129.85v9.93H65v-9.93Z"/><path class="cls-1" d="M69.17,130a19.29,19.29,0,0,1,3-.21,5.07,5.07,0,0,1,3.21.78,2.53,2.53,0,0,1,.92,2.08,2.62,2.62,0,0,1-1.76,2.44v0A2.49,2.49,0,0,1,75.86,137c.31,1.12.61,2.41.8,2.8h-2.3a12.8,12.8,0,0,1-.68-2.32c-.28-1.24-.69-1.57-1.62-1.58H71.4v3.9H69.17Zm2.23,4.27h.88c1.11,0,1.77-.57,1.77-1.43s-.62-1.38-1.64-1.38a4.78,4.78,0,0,0-1,.07Z"/><path class="cls-1" d="M80.34,137.23l-.7,2.55H77.32l3-9.93h2.94l3.09,9.93H84l-.76-2.55Zm2.52-1.67-.61-2.11c-.17-.59-.35-1.33-.5-1.91h0c-.15.58-.3,1.33-.46,1.91l-.59,2.11Z"/><path class="cls-1" d="M89.86,129.85h2.25v6.28c0,2.82-1.35,3.81-3.53,3.81a5.48,5.48,0,0,1-1.65-.24l.26-1.8a4.09,4.09,0,0,0,1.14.17c.94,0,1.53-.42,1.53-2Z"/><path class="cls-1" d="M105.35,136c0-1.2-.09-2.63-.09-4.09h0c-.32,1.27-.73,2.68-1.11,3.86l-1.21,3.86h-1.75l-1.07-3.83c-.32-1.17-.65-2.58-.89-3.89h0c0,1.35-.11,2.89-.17,4.12l-.18,3.77H96.73l.64-9.93h3l1,3.32c.31,1.14.62,2.38.84,3.55h0c.27-1.15.6-2.46.94-3.57l1-3.3h2.94l.53,9.93H105.5Z"/><path class="cls-1" d="M115.32,135.58h-3.65v2.36h4.08v1.84h-6.33v-9.93h6.12v1.84h-3.87v2.07h3.65Z"/><rect class="cls-5" x="50.93" y="41.69" width="27.92" height="27.92" rx="2.37"/><polygon class="cls-1" points="69.48 61.23 70.7 58.51 68.34 55.45 73.01 48.3 67.34 48.92 68.69 45.72 64.81 45.2 66.36 41.69 64.35 41.69 62.04 46.75 65.92 47.44 63.87 51.51 68.65 50.99 65.41 55.53 67.65 58.93 65.73 62.49 66.09 62.84 67.63 64.41 67.73 64.52 69.14 65.98 72.68 69.62 77.13 69.62 69.3 61.67 69.48 61.23"/><rect class="cls-6" x="50.93" y="41.69" width="27.92" height="27.92" rx="2.37"/><polygon class="cls-1" points="69.48 61.23 70.7 58.51 68.34 55.45 73.01 48.3 67.34 48.92 68.69 45.72 64.81 45.2 66.36 41.69 64.35 41.69 62.04 46.75 65.92 47.44 63.87 51.51 68.65 50.99 65.41 55.53 67.65 58.93 65.73 62.49 66.09 62.84 67.63 64.41 67.73 64.52 69.14 65.98 72.68 69.62 77.13 69.62 69.3 61.67 69.48 61.23"/></g></g></svg>